<svg xmlns="http://www.w3.org/2000/svg" viewBox="0 0 561 124"><path d="M134.6 124H116v-17.9h18.6c4.3 0 7.8 2.2 7.8 5v7.9c0 2.8-3.5 5-7.8 5zm2.8-26.5H71.8V79.6h65.6a4.95 4.95 0 0 1 5 5v7.9c0 2.7-2.3 5-5 5zm0-26.5H89.7V53h47.7a4.95 4.95 0 0 1 5 5v8c0 2.8-2.3 5-5 5zm0-26.6h-30.8V26.5h30.8a4.95 4.95 0 0 1 5 5v7.9c0 2.8-2.3 5-5 5zm0-26.5H34.8V0h102.5a4.95 4.95 0 0 1 5 5v7.9c.1 2.8-2.2 5-4.9 5z" fill="#8c8c8c"/><path d="M89.7 71H5.1a4.95 4.95 0 0 1-5-5v-8a4.95 4.95 0 0 1 5-5h84.6v18zM107 44.4H5a4.95 4.95 0 0 1-5-5v-7.9a4.95 4.95 0 0 1 5-5h102v17.9zM71.8 97.5H5.1a4.95 4.95 0 0 1-5-5v-7.9a4.95 4.95 0 0 1 5-5h66.7v17.9zM35 17.9H5a4.95 4.95 0 0 1-5-5V5a4.95 4.95 0 0 1 5-5h30v17.9zM125.5 124H5.1a4.95 4.95 0 0 1-5-5v-7.9a4.95 4.95 0 0 1 5-5h120.4V124z" fill="#777"/><path d="M235.1 48.2c2.9 2.9 4.3 7.1 4.3 12.8v22.2h-11.2V62.8c0-3.1-.6-5.4-1.9-6.9a6.72 6.72 0 0 0-5.4-2.3c-2.4-.1-4.7.8-6.3 2.6-1.5 1.7-2.3 4.2-2.3 7.6v19.4H201V62.8c0-6.1-2.4-9.1-7.3-9.1-2.3-.1-4.6.8-6.2 2.6-1.5 1.7-2.3 4.2-2.3 7.6v19.4H174V44.5h10.7V49c1.5-1.6 3.3-2.9 5.3-3.7 2.2-.9 4.5-1.3 6.9-1.3 2.6 0 5.1.5 7.4 1.6 2.2 1.1 4 2.7 5.3 4.7 1.6-2 3.7-3.6 6-4.7a19.8 19.8 0 0 1 8-1.7c4.8 0 8.6 1.4 11.5 4.3zm52.1-3.7l-17.5 41.1c-1.8 4.5-4 7.6-6.6 9.4-2.8 1.9-6.1 2.8-9.5 2.7-2 0-4.1-.3-6-.9-1.8-.5-3.4-1.4-4.8-2.6l4.1-8c.9.8 1.9 1.4 3 1.8s2.2.6 3.4.7c1.3.1 2.7-.3 3.7-1.1 1.2-1 2-2.3 2.6-3.7l.1-.4-16.7-39h11.6l10.9 26.3 10.9-26.3h10.8zM326 35c3.1 1.3 5.7 3.5 7.6 6.3 1.8 2.9 2.7 6.3 2.7 9.7.1 3.4-.8 6.8-2.7 9.7-1.8 2.8-4.5 5-7.6 6.3-3.7 1.5-7.6 2.3-11.6 2.2h-10.1v13.9h-11.7V32.8h21.8c4-.1 7.9.7 11.6 2.2zm-4.3 22.5c1.9-1.6 2.9-4 2.7-6.4.1-2.5-.9-4.9-2.7-6.5-1.8-1.5-4.5-2.3-8-2.3h-9.5v17.5h9.5c3.5 0 6.2-.7 8-2.3h0zm29.4 23.7c-3.1-1.6-5.8-4.1-7.6-7.1-1.9-3.1-2.8-6.7-2.7-10.3-.1-3.6.9-7.2 2.7-10.3 1.8-3 4.5-5.5 7.6-7.1 6.9-3.4 15-3.4 21.9 0 3.1 1.6 5.7 4.1 7.6 7.1 3.6 6.4 3.6 14.2 0 20.6-1.8 3-4.4 5.5-7.6 7.1-6.8 3.4-14.9 3.4-21.9 0h0zm18.1-9.5c1.9-2.1 2.9-4.9 2.8-7.8.2-2.9-.8-5.7-2.8-7.8-1.8-1.9-4.4-3-7.1-2.9-2.7-.1-5.3 1-7.1 2.9-1.9 2.1-3 4.9-2.8 7.8-.2 2.9.9 5.7 2.8 7.8 1.9 1.9 4.4 3 7.1 2.9 2.7.1 5.3-1 7.1-2.9h0zm21.7-41.9h11.2v53.4h-11.2V29.8zm22.2 7.5c-2.5-2.3-2.6-6.2-.3-8.6l.3-.3c1.4-1.2 3.2-1.9 5-1.8 1.8-.1 3.6.5 5 1.7 1.3 1.1 2 2.7 1.9 4.3a6.42 6.42 0 0 1-1.9 4.6c-1.4 1.2-3.2 1.9-5 1.8-1.8.1-3.6-.5-5-1.7zm-.6 7.2h11.2v38.7h-11.2V44.5zm46.7 36.8c-1.2.9-2.6 1.5-4.1 1.8a22.2 22.2 0 0 1-5.1.6c-4.6 0-8.2-1.2-10.7-3.5-2.5-2.4-3.8-5.8-3.8-10.4V54h-6v-8.7h6v-9.4h11.2v9.4h9.6V54h-9.6v15.8c-.1 1.4.4 2.7 1.3 3.8.9.9 2.2 1.4 3.6 1.3 1.6 0 3.2-.5 4.5-1.4l3.1 7.8zm6.9-44c-2.5-2.3-2.6-6.2-.3-8.6l.3-.3c1.4-1.2 3.2-1.9 5-1.8 1.8-.1 3.6.5 5 1.7 1.3 1.1 2 2.7 2 4.3 0 1.8-.7 3.4-2 4.6-1.4 1.2-3.2 1.9-5 1.8-1.8.1-3.6-.5-5-1.7zm-.6 7.2h11.2v38.7h-11.2V44.5zm29.3 36.7c-3.2-1.6-5.8-4.1-7.7-7.1a20.5 20.5 0 0 1 0-20.6c1.9-3 4.5-5.5 7.7-7.1 3.4-1.7 7.3-2.6 11.1-2.6 3.7-.1 7.4.8 10.7 2.6 3 1.6 5.3 4.2 6.7 7.3l-8.7 4.7c-2-3.6-4.9-5.3-8.7-5.3-2.7-.1-5.3 1-7.3 2.9-2 2.1-3 4.9-2.9 7.8-.2 2.9.9 5.7 2.9 7.8 1.9 1.9 4.6 3 7.3 2.9 3.7.1 7.1-2 8.7-5.3l8.7 4.8c-1.4 3.1-3.7 5.6-6.7 7.2-3.3 1.8-7 2.7-10.7 2.6-3.8.1-7.7-.8-11.1-2.6zm38.5 1.4c-2.6-.6-5.1-1.6-7.3-3l3.7-8.1c1.9 1.2 4.1 2.1 6.3 2.7 2.3.7 4.8 1 7.2 1 4.8 0 7.1-1.2 7.1-3.5 0-1.1-.8-2.1-1.9-2.4-2-.6-4-1-6-1.2-2.7-.4-5.3-.9-7.8-1.7-2-.6-3.9-1.8-5.4-3.3-1.5-1.6-2.3-3.8-2.3-6.8 0-2.3.7-4.6 2.1-6.5 1.6-2 3.7-3.6 6.2-4.4 3.1-1.1 6.3-1.7 9.6-1.6 2.7 0 5.5.3 8.2.9 2.4.5 4.6 1.3 6.7 2.5l-3.7 8c-3.4-1.9-7.3-2.9-11.2-2.9-1.9-.1-3.7.2-5.4 1-1 .5-1.7 1.5-1.8 2.6a2.58 2.58 0 0 0 1.9 2.5c2 .6 4.1 1.1 6.2 1.4 2.6.4 5.2 1 7.8 1.7 2 .6 3.8 1.7 5.3 3.3a8.86 8.86 0 0 1 2.2 6.6c0 2.3-.7 4.6-2.2 6.4-1.6 2-3.8 3.5-6.3 4.4-3.2 1.1-6.5 1.6-9.8 1.6-3.1 0-6.3-.4-9.4-1.2z" fill="#8c8c8c"/></svg>