<?xml version="1.0" encoding="utf-8"?>
<!-- Generator: Adobe Illustrator 21.1.0, SVG Export Plug-In . SVG Version: 6.00 Build 0)  -->
<svg version="1.1" id="Warstwa_1" xmlns="http://www.w3.org/2000/svg" xmlns:xlink="http://www.w3.org/1999/xlink" x="0px" y="0px"
	 viewBox="0 0 561 124" style="enable-background:new 0 0 561 124;" xml:space="preserve">
<style type="text/css">
	.st0{fill:#8C8C8C;}
	.st1{fill:#777777;}
</style>
<title>logo</title>
<path class="st0" d="M120.7,124H13.2V106h107.5V124z"/>
<path class="st0" d="M120.7,97.5H13.2V79.6h107.5V97.5z"/>
<path class="st0" d="M125.5,44.4H18V26.5h107.5V44.4z"/>
<path class="st0" d="M116.6,71H9V53h107.5V71z"/>
<path class="st0" d="M125.5,18H18V0h107.5V18z"/>
<path class="st0" d="M134.6,124H116v-17.9h18.6c4.3,0,7.8,2.2,7.8,5v7.9C142.4,121.8,138.9,124,134.6,124z"/>
<path class="st0" d="M137.4,97.5H71.8V79.6h65.6c2.8,0,5,2.2,5,5v7.9C142.4,95.2,140.1,97.5,137.4,97.5
	C137.4,97.5,137.4,97.5,137.4,97.5z"/>
<path class="st0" d="M137.4,71H89.7V53h47.7c2.8,0,5,2.2,5,5v8C142.4,68.8,140.1,71,137.4,71z"/>
<path class="st0" d="M137.4,44.4h-30.8V26.5h30.8c2.8,0,5,2.2,5,5v7.9C142.4,42.2,140.1,44.4,137.4,44.4z"/>
<path class="st0" d="M137.4,17.9H34.8V0h102.5c2.8,0,5,2.2,5,5v7.9C142.4,15.7,140.1,17.9,137.4,17.9z"/>
<path class="st1" d="M89.7,71H5.1c-2.8,0-5-2.2-5-5v-8c0-2.8,2.2-5,5-5h84.6L89.7,71z"/>
<path class="st1" d="M107,44.4H5c-2.8,0-5-2.2-5-5v-7.9c0-2.8,2.2-5,5-5h102V44.4z"/>
<path class="st1" d="M71.8,97.5H5.1c-2.8,0-5-2.2-5-5v-7.9c0-2.8,2.2-5,5-5h66.7V97.5z"/>
<path class="st1" d="M35,17.9H5c-2.8,0-5-2.2-5-5V5c0-2.8,2.2-5,5-5h30V17.9z"/>
<path class="st1" d="M125.5,124H5.1c-2.8,0-5-2.2-5-5v-7.9c0-2.8,2.2-5,5-5h120.4V124z"/>
<path class="st0" d="M235.1,48.2c2.9,2.9,4.3,7.1,4.3,12.8v22.2h-11.2V62.8c0-3.1-0.6-5.4-1.9-6.9c-1.4-1.6-3.4-2.4-5.4-2.3
	c-2.4-0.1-4.7,0.8-6.3,2.6c-1.5,1.7-2.3,4.2-2.3,7.6v19.4H201V62.8c0-6.1-2.4-9.1-7.3-9.1c-2.3-0.1-4.6,0.8-6.2,2.6
	c-1.5,1.7-2.3,4.2-2.3,7.6v19.4h-11.2V44.5h10.7v4.5c1.5-1.6,3.3-2.9,5.3-3.7c2.2-0.9,4.5-1.3,6.9-1.3c2.6,0,5.1,0.5,7.4,1.6
	c2.2,1.1,4,2.7,5.3,4.7c1.6-2,3.7-3.6,6-4.7c2.5-1.1,5.2-1.7,8-1.7C228.4,43.9,232.2,45.3,235.1,48.2z"/>
<path class="st0" d="M287.2,44.5l-17.5,41.1c-1.8,4.5-4,7.6-6.6,9.4c-2.8,1.9-6.1,2.8-9.5,2.7c-2,0-4.1-0.3-6-0.9
	c-1.8-0.5-3.4-1.4-4.8-2.6l4.1-8c0.9,0.8,1.9,1.4,3,1.8c1.1,0.4,2.2,0.6,3.4,0.7c1.3,0.1,2.7-0.3,3.7-1.1c1.2-1,2-2.3,2.6-3.7
	l0.1-0.4l-16.7-39h11.6l10.9,26.3l10.9-26.3H287.2z"/>
<path class="st0" d="M326,35c3.1,1.3,5.7,3.5,7.6,6.3c1.8,2.9,2.7,6.3,2.7,9.7c0.1,3.4-0.8,6.8-2.7,9.7c-1.8,2.8-4.5,5-7.6,6.3
	c-3.7,1.5-7.6,2.3-11.6,2.2h-10.1v13.9h-11.7V32.8h21.8C318.4,32.7,322.3,33.5,326,35z M321.7,57.5c1.9-1.6,2.9-4,2.7-6.4
	c0.1-2.5-0.9-4.9-2.7-6.5c-1.8-1.5-4.5-2.3-8-2.3h-9.5v17.5h9.5C317.2,59.8,319.9,59.1,321.7,57.5L321.7,57.5z"/>
<path class="st0" d="M351.1,81.2c-3.1-1.6-5.8-4.1-7.6-7.1c-1.9-3.1-2.8-6.7-2.7-10.3c-0.1-3.6,0.9-7.2,2.7-10.3
	c1.8-3,4.5-5.5,7.6-7.1c6.9-3.4,15-3.4,21.9,0c3.1,1.6,5.7,4.1,7.6,7.1c3.6,6.4,3.6,14.2,0,20.6c-1.8,3-4.4,5.5-7.6,7.1
	C366.2,84.6,358.1,84.6,351.1,81.2L351.1,81.2z M369.2,71.7c1.9-2.1,2.9-4.9,2.8-7.8c0.2-2.9-0.8-5.7-2.8-7.8
	c-1.8-1.9-4.4-3-7.1-2.9c-2.7-0.1-5.3,1-7.1,2.9c-1.9,2.1-3,4.9-2.8,7.8c-0.2,2.9,0.9,5.7,2.8,7.8c1.9,1.9,4.4,3,7.1,2.9
	C364.8,74.7,367.4,73.6,369.2,71.7L369.2,71.7z"/>
<path class="st0" d="M390.9,29.8h11.2v53.4h-11.2V29.8z"/>
<path class="st0" d="M413.1,37.3c-2.5-2.3-2.6-6.2-0.3-8.6c0.1-0.1,0.2-0.2,0.3-0.3c1.4-1.2,3.2-1.9,5-1.8c1.8-0.1,3.6,0.5,5,1.7
	c1.3,1.1,2,2.7,1.9,4.3c0,1.8-0.7,3.4-1.9,4.6c-1.4,1.2-3.2,1.9-5,1.8C416.3,39.1,414.5,38.5,413.1,37.3z M412.5,44.5h11.2v38.7
	h-11.2V44.5z"/>
<path class="st0" d="M459.2,81.3c-1.2,0.9-2.6,1.5-4.1,1.8c-1.7,0.4-3.4,0.6-5.1,0.6c-4.6,0-8.2-1.2-10.7-3.5
	c-2.5-2.4-3.8-5.8-3.8-10.4V54h-6v-8.7h6v-9.4h11.2v9.4h9.6V54h-9.6v15.8c-0.1,1.4,0.4,2.7,1.3,3.8c0.9,0.9,2.2,1.4,3.6,1.3
	c1.6,0,3.2-0.5,4.5-1.4L459.2,81.3z"/>
<path class="st0" d="M466.1,37.3c-2.5-2.3-2.6-6.2-0.3-8.6c0.1-0.1,0.2-0.2,0.3-0.3c1.4-1.2,3.2-1.9,5-1.8c1.8-0.1,3.6,0.5,5,1.7
	c1.3,1.1,2,2.7,2,4.3c0,1.8-0.7,3.4-2,4.6c-1.4,1.2-3.2,1.9-5,1.8C469.3,39.1,467.5,38.5,466.1,37.3z M465.5,44.5h11.2v38.7h-11.2
	L465.5,44.5z"/>
<path class="st0" d="M494.8,81.2c-3.2-1.6-5.8-4.1-7.7-7.1c-3.7-6.4-3.7-14.2,0-20.6c1.9-3,4.5-5.5,7.7-7.1
	c3.4-1.7,7.3-2.6,11.1-2.6c3.7-0.1,7.4,0.8,10.7,2.6c3,1.6,5.3,4.2,6.7,7.3l-8.7,4.7c-2-3.6-4.9-5.3-8.7-5.3c-2.7-0.1-5.3,1-7.3,2.9
	c-2,2.1-3,4.9-2.9,7.8c-0.2,2.9,0.9,5.7,2.9,7.8c1.9,1.9,4.6,3,7.3,2.9c3.7,0.1,7.1-2,8.7-5.3l8.7,4.8c-1.4,3.1-3.7,5.6-6.7,7.2
	c-3.3,1.8-7,2.7-10.7,2.6C502.1,83.9,498.2,83,494.8,81.2z"/>
<path class="st0" d="M533.3,82.6c-2.6-0.6-5.1-1.6-7.3-3l3.7-8.1c1.9,1.2,4.1,2.1,6.3,2.7c2.3,0.7,4.8,1,7.2,1
	c4.8,0,7.1-1.2,7.1-3.5c0-1.1-0.8-2.1-1.9-2.4c-2-0.6-4-1-6-1.2c-2.7-0.4-5.3-0.9-7.8-1.7c-2-0.6-3.9-1.8-5.4-3.3
	c-1.5-1.6-2.3-3.8-2.3-6.8c0-2.3,0.7-4.6,2.1-6.5c1.6-2,3.7-3.6,6.2-4.4c3.1-1.1,6.3-1.7,9.6-1.6c2.7,0,5.5,0.3,8.2,0.9
	c2.4,0.5,4.6,1.3,6.7,2.5l-3.7,8c-3.4-1.9-7.3-2.9-11.2-2.9c-1.9-0.1-3.7,0.2-5.4,1c-1,0.5-1.7,1.5-1.8,2.6c0,1.2,0.8,2.2,1.9,2.5
	c2,0.6,4.1,1.1,6.2,1.4c2.6,0.4,5.2,1,7.8,1.7c2,0.6,3.8,1.7,5.3,3.3c1.6,1.8,2.4,4.2,2.2,6.6c0,2.3-0.7,4.6-2.2,6.4
	c-1.6,2-3.8,3.5-6.3,4.4c-3.2,1.1-6.5,1.6-9.8,1.6C539.6,83.8,536.4,83.4,533.3,82.6z"/>
<path class="st0" d="M125.5,71H18V53h107.5V71z"/>
</svg>
