<svg viewBox="0 0 185 41" fill="none" xmlns="http://www.w3.org/2000/svg">
<g clip-path="url(#clip0)">
<path d="M74.5458 28.4H78.6258V20.576C78.6258 16.976 76.4898 14.864 73.1778 14.864C71.2338 14.864 69.5538 15.944 68.6658 17.36C67.7538 15.752 66.1218 14.864 64.1058 14.864C62.3538 14.864 60.9858 15.608 60.1938 16.688V15.008H56.0898V28.4H60.1938V21.128C60.1938 19.376 61.2018 18.416 62.7618 18.416C64.3218 18.416 65.3298 19.376 65.3298 21.128V28.4H69.4098V21.128C69.4098 19.376 70.4178 18.416 71.9778 18.416C73.5378 18.416 74.5458 19.376 74.5458 21.128V28.4Z" fill="#001E24"/>
<path d="M87.6641 23.384L84.5681 15.008H79.9841L85.4321 27.944L82.3601 34.76H86.7761L95.1761 15.008H90.7361L87.6641 23.384Z" fill="#001E24"/>
<path d="M100.764 19.088V14.864H102.996C104.628 14.864 105.324 15.68 105.324 16.976C105.324 18.272 104.628 19.088 102.996 19.088H100.764ZM109.5 16.976C109.5 13.88 107.436 11.552 103.308 11.552H96.6602V28.4H100.764V22.352H103.308C107.604 22.352 109.5 19.76 109.5 16.976Z" fill="#001E24"/>
<path d="M124.741 21.704C124.741 17.456 121.717 14.816 117.781 14.816C113.869 14.816 110.821 17.456 110.821 21.704C110.821 25.952 113.797 28.592 117.733 28.592C121.669 28.592 124.741 25.952 124.741 21.704ZM114.997 21.704C114.997 19.424 116.293 18.368 117.781 18.368C119.221 18.368 120.565 19.424 120.565 21.704C120.565 23.96 119.197 25.04 117.733 25.04C116.245 25.04 114.997 23.96 114.997 21.704Z" fill="#001E24"/>
<path d="M126.918 28.4H131.022V10.64H126.918V28.4Z" fill="#001E24"/>
<path d="M133.996 28.4H138.1V15.008H133.996V28.4ZM136.06 13.616C137.5 13.616 138.484 12.632 138.484 11.408C138.484 10.16 137.5 9.17603 136.06 9.17603C134.596 9.17603 133.612 10.16 133.612 11.408C133.612 12.632 134.596 13.616 136.06 13.616Z" fill="#001E24"/>
<path d="M141.722 23.744C141.722 27.224 143.666 28.4 146.45 28.4H148.538V24.92H147.074C146.162 24.92 145.826 24.584 145.826 23.792V18.416H148.514V15.008H145.826V11.744H141.722V15.008H140.09V18.416H141.722V23.744Z" fill="#001E24"/>
<path d="M150.824 28.4H154.928V15.008H150.824V28.4ZM152.888 13.616C154.328 13.616 155.312 12.632 155.312 11.408C155.312 10.16 154.328 9.17603 152.888 9.17603C151.424 9.17603 150.44 10.16 150.44 11.408C150.44 12.632 151.424 13.616 152.888 13.616Z" fill="#001E24"/>
<path d="M157.086 21.704C157.086 25.952 159.87 28.592 163.806 28.592C167.166 28.592 169.542 26.648 170.238 23.552H165.87C165.51 24.536 164.862 25.088 163.734 25.088C162.27 25.088 161.262 23.936 161.262 21.704C161.262 19.472 162.27 18.32 163.734 18.32C164.862 18.32 165.534 18.92 165.87 19.856H170.238C169.542 16.664 167.166 14.816 163.806 14.816C159.87 14.816 157.086 17.48 157.086 21.704Z" fill="#001E24"/>
<path d="M183.306 24.512C183.234 19.52 175.986 21.032 175.986 18.896C175.986 18.248 176.514 17.864 177.474 17.864C178.626 17.864 179.322 18.464 179.442 19.376H183.234C182.97 16.736 181.05 14.816 177.594 14.816C174.09 14.816 172.146 16.688 172.146 18.968C172.146 23.888 179.442 22.328 179.442 24.488C179.442 25.088 178.89 25.568 177.834 25.568C176.706 25.568 175.866 24.944 175.77 24.008H171.714C171.906 26.6 174.306 28.592 177.882 28.592C181.242 28.592 183.306 26.84 183.306 24.512Z" fill="#001E24"/>
<path d="M29.2 23.1H1.59998C0.699976 23.1 0 22.4 0 21.5V18.9C0 18 0.699976 17.3 1.59998 17.3H29.2V23.1Z" fill="#006443"/>
<path d="M34.8 14.5H1.59998C0.699976 14.5 0 13.8 0 12.9V10.3C0 9.40005 0.699976 8.70001 1.59998 8.70001H34.8V14.5Z" fill="#35495E"/>
<path d="M23.3 31.7H1.59998C0.699976 31.7 0 31 0 30.1V27.5C0 26.6 0.699976 25.9 1.59998 25.9H23.3V31.7Z" fill="#945BA4"/>
<path d="M11.4 5.80005H1.59998C0.699976 5.80005 0 5.10001 0 4.20001V1.60004C0 0.700037 0.699976 0 1.59998 0H11.4V5.80005Z" fill="#E54C3C"/>
<path d="M40.9 40.4H1.59998C0.699976 40.4 0 39.7 0 38.8V36.2C0 35.3 0.699976 34.6 1.59998 34.6H40.8V40.4H40.9Z" fill="#4E8EAC"/>
<path d="M44.7007 5.80005H11.3008V0H44.7007C45.6007 0 46.3008 0.700037 46.3008 1.60004V4.20001C46.3008 5.10001 45.6007 5.80005 44.7007 5.80005Z" fill="#4EB96F"/>
<path d="M44.6996 14.5H34.5996V8.70001H44.6996C45.5996 8.70001 46.2996 9.40005 46.2996 10.3V12.9C46.2996 13.7 45.5996 14.5 44.6996 14.5Z" fill="#3B96D2"/>
<path d="M44.6992 23.1H29.1992V17.2H44.6992C45.5992 17.2 46.2993 17.9 46.2993 18.8V21.4C46.2993 22.4 45.5992 23.1 44.6992 23.1Z" fill="#F9A433"/>
<path d="M44.7007 31.7H23.3008V25.9H44.7007C45.6007 25.9 46.3008 26.6 46.3008 27.5V30.1C46.3008 31 45.6007 31.7 44.7007 31.7Z" fill="#27B899"/>
<path d="M44.7007 40.4H40.8008V34.6H44.7007C45.6007 34.6 46.3008 35.3 46.3008 36.2V38.8C46.4008 39.7 45.6007 40.4 44.7007 40.4Z" fill="#F89D37"/>
</g>
<defs>
<clipPath id="clip0">
<rect width="184.601" height="40.4" fill="white"/>
</clipPath>
</defs>
</svg>
