<svg id="Warstwa_1" data-name="Warstwa 1" xmlns="http://www.w3.org/2000/svg" viewBox="0 0 393 135"><defs><style>.cls-1{fill:#111}</style></defs><title>logo-classic</title><path class="cls-1" d="M61.16,49.59q4.28,4.28,4.28,12.85V84.61H54.22V64.17q0-4.61-1.91-6.88A6.71,6.71,0,0,0,46.87,55a8,8,0,0,0-6.26,2.56q-2.3,2.56-2.3,7.6V84.61H27.07V64.17q0-9.14-7.34-9.14a7.93,7.93,0,0,0-6.19,2.56q-2.31,2.56-2.3,7.6V84.61H0V45.88H10.73v4.46A14.19,14.19,0,0,1,16,46.6a17.81,17.81,0,0,1,6.88-1.3,16.65,16.65,0,0,1,7.42,1.62,13.15,13.15,0,0,1,5.33,4.72,15.89,15.89,0,0,1,6-4.68,19,19,0,0,1,8-1.66Q56.88,45.3,61.16,49.59Z"/><path class="cls-1" d="M113.26,45.88,95.76,87q-2.66,6.7-6.59,9.43a16.14,16.14,0,0,1-9.47,2.74,19.68,19.68,0,0,1-6-.94,13.2,13.2,0,0,1-4.82-2.59l4.1-8a9.66,9.66,0,0,0,3,1.8,9.31,9.31,0,0,0,3.35.65A5.94,5.94,0,0,0,83.09,89a9.48,9.48,0,0,0,2.59-3.71l.14-.36L69,45.88H80.64L91.51,72.16l10.94-26.28Z"/><path class="cls-1" d="M152.1,36.45a17.29,17.29,0,0,1,7.6,6.34,17.47,17.47,0,0,1,2.66,9.72,17.51,17.51,0,0,1-2.66,9.68,17,17,0,0,1-7.6,6.34,28.39,28.39,0,0,1-11.63,2.2H130.32v13.9H118.66V34.21h21.82A28,28,0,0,1,152.1,36.45Zm-4.28,22.5a7.9,7.9,0,0,0,2.74-6.44A8,8,0,0,0,147.81,46q-2.74-2.27-8-2.27h-9.5v17.5h9.5Q145.08,61.21,147.81,58.95Z"/><path class="cls-1" d="M177.23,82.63a19,19,0,0,1-7.6-7.09,20.75,20.75,0,0,1,0-20.59,19,19,0,0,1,7.6-7.09,24.78,24.78,0,0,1,21.92,0,19.08,19.08,0,0,1,7.56,7.09,20.75,20.75,0,0,1,0,20.59,19.07,19.07,0,0,1-7.56,7.09,24.78,24.78,0,0,1-21.92,0Zm18.07-9.58a10.87,10.87,0,0,0,2.77-7.81,10.88,10.88,0,0,0-2.77-7.81,9.36,9.36,0,0,0-7.09-2.92,9.47,9.47,0,0,0-7.13,2.92,10.79,10.79,0,0,0-2.81,7.81,10.79,10.79,0,0,0,2.81,7.81A9.47,9.47,0,0,0,188.21,76,9.35,9.35,0,0,0,195.3,73.06Z"/><path class="cls-1" d="M216.94,31.19h11.23V84.61H216.94Z"/><path class="cls-1" d="M239.18,38.68a6.1,6.1,0,0,1,0-8.93,7.12,7.12,0,0,1,5-1.8,7.3,7.3,0,0,1,5,1.73A5.54,5.54,0,0,1,251.21,34a6.11,6.11,0,0,1-1.94,4.64,7,7,0,0,1-5,1.84A7.12,7.12,0,0,1,239.18,38.68Zm-.58,7.2h11.23V84.61H238.61Z"/><path class="cls-1" d="M285.26,82.74a11.52,11.52,0,0,1-4.07,1.84,20.62,20.62,0,0,1-5.08.61q-6.91,0-10.69-3.53t-3.78-10.37V55.38h-6V46.74h6V37.31h11.23v9.43h9.65v8.64h-9.65V71.15a5.29,5.29,0,0,0,1.26,3.78,4.67,4.67,0,0,0,3.56,1.33,7.21,7.21,0,0,0,4.54-1.44Z"/><path class="cls-1" d="M292.17,38.68a6.1,6.1,0,0,1,0-8.93,7.13,7.13,0,0,1,5-1.8,7.3,7.3,0,0,1,5,1.73A5.54,5.54,0,0,1,304.2,34a6.11,6.11,0,0,1-1.95,4.64,7,7,0,0,1-5,1.84A7.13,7.13,0,0,1,292.17,38.68Zm-.58,7.2h11.23V84.61H291.6Z"/><path class="cls-1" d="M320.87,82.63a19.12,19.12,0,0,1-7.7-7.09,20.5,20.5,0,0,1,0-20.59,19.13,19.13,0,0,1,7.7-7.09A23.82,23.82,0,0,1,332,45.3a21.56,21.56,0,0,1,10.69,2.56,15.16,15.16,0,0,1,6.66,7.31l-8.71,4.68q-3-5.33-8.71-5.33a9.86,9.86,0,0,0-7.27,2.88,10.6,10.6,0,0,0-2.88,7.85,10.6,10.6,0,0,0,2.88,7.85A9.86,9.86,0,0,0,331.92,76a9.42,9.42,0,0,0,8.71-5.33l8.71,4.75a15.47,15.47,0,0,1-6.66,7.2A21.32,21.32,0,0,1,332,85.19,23.8,23.8,0,0,1,320.87,82.63Z"/><path class="cls-1" d="M359.42,84a24.61,24.61,0,0,1-7.34-3l3.74-8.06a23.52,23.52,0,0,0,6.26,2.7,26.24,26.24,0,0,0,7.2,1q7.13,0,7.13-3.53a2.5,2.5,0,0,0-1.94-2.38,28.89,28.89,0,0,0-6-1.22,57.49,57.49,0,0,1-7.85-1.66,12.17,12.17,0,0,1-5.36-3.31Q353,62.22,353,57.83a10.6,10.6,0,0,1,2.12-6.52,13.67,13.67,0,0,1,6.19-4.43,26.45,26.45,0,0,1,9.61-1.58,37.74,37.74,0,0,1,8.17.9,22.9,22.9,0,0,1,6.73,2.48l-3.74,8a22.36,22.36,0,0,0-11.16-2.88,11.36,11.36,0,0,0-5.4,1,3,3,0,0,0-1.8,2.59,2.57,2.57,0,0,0,1.94,2.52,34.37,34.37,0,0,0,6.19,1.37A66.5,66.5,0,0,1,379.65,63a11.7,11.7,0,0,1,5.26,3.28,9.3,9.3,0,0,1,2.23,6.62A10.23,10.23,0,0,1,385,79.29a13.78,13.78,0,0,1-6.3,4.36,28.08,28.08,0,0,1-9.83,1.55A37.62,37.62,0,0,1,359.42,84Z"/></svg>