<svg xmlns="http://www.w3.org/2000/svg" viewBox="0 0 561 124"><path d="M89.67,71H5.08a5,5,0,0,1-5-5V58a5,5,0,0,1,5-5h84.6Z" fill="#006442"/><path d="M107,44.44H5a5,5,0,0,1-5-5V31.52a5,5,0,0,1,5-5H107Z" fill="#34495e"/><path d="M71.75,97.48H5.08a5,5,0,0,1-5-5V84.56a5,5,0,0,1,5-5H71.75Z" fill="#9b59b6"/><path d="M35,17.92H5a5,5,0,0,1-5-5V5A5,5,0,0,1,5,0H35Z" fill="#e74c3c"/><path d="M125.5 124H5.08a5 5 0 0 1-5-5v-7.92a5 5 0 0 1 5-5H125.5z" fill="#4d8fac"/><path d="M137.35 17.92H34.84V0h102.5a5 5 0 0 1 5 5v7.92a5 5 0 0 1-5 5z" fill="#2ecc71"/><path d="M137.35 44.44H106.5V26.52h30.84a5 5 0 0 1 5 5v7.92a5 5 0 0 1-5 5z" fill="#3498db"/><path d="M137.35 71H89.67V53h47.68a5 5 0 0 1 5 5v8a5 5 0 0 1-5 5z" fill="#ffa631"/><path d="M137.35 97.48h-65.6V79.56h65.6a5 5 0 0 1 5 5v7.92a5 5 0 0 1-5 5z" fill="#1abc9c"/><path d="M137.42 124h-11.84v-17.92h11.84a5 5 0 0 1 5 5V119a5 5 0 0 1-5 5z" fill="#f99e35"/><path d="M235.1 48.18q4.28 4.28 4.28 12.85V83.2h-11.23V62.76q0-4.6-1.9-6.88a6.71 6.71 0 0 0-5.44-2.27 8 8 0 0 0-6.26 2.56q-2.3 2.56-2.3 7.6V83.2H201V62.76q0-9.14-7.34-9.14a7.93 7.93 0 0 0-6.19 2.56q-2.3 2.56-2.3 7.6V83.2h-11.24V44.47h10.73v4.46a14.19 14.19 0 0 1 5.29-3.74 17.81 17.81 0 0 1 6.88-1.3 16.65 16.65 0 0 1 7.42 1.62 13.15 13.15 0 0 1 5.33 4.72 15.89 15.89 0 0 1 6-4.68 19 19 0 0 1 8-1.66q7.22.01 11.5 4.3zm52.08-3.7l-17.5 41.1Q267 92.28 263.1 95a16.14 16.14 0 0 1-9.47 2.74 19.68 19.68 0 0 1-6-.94 13.2 13.2 0 0 1-4.82-2.59l4.1-8a9.66 9.66 0 0 0 3 1.8 9.31 9.31 0 0 0 3.35.65 5.94 5.94 0 0 0 3.74-1.09 9.48 9.48 0 0 0 2.59-3.71l.14-.36L243 44.47h11.6l10.87 26.28 10.94-26.28zM326 35a17.29 17.29 0 0 1 7.6 6.34 17.47 17.47 0 0 1 2.66 9.72 17.51 17.51 0 0 1-2.66 9.68 17 17 0 0 1-7.6 6.34 28.39 28.39 0 0 1-11.63 2.2h-10.13v13.9h-11.66V32.8h21.82A28 28 0 0 1 326 35zm-4.28 22.5a7.9 7.9 0 0 0 2.74-6.44 8 8 0 0 0-2.74-6.52q-2.74-2.27-8-2.27h-9.5v17.5h9.5q5.28.04 8.02-2.23zm29.43 23.73a19 19 0 0 1-7.6-7.09 19.53 19.53 0 0 1-2.74-10.3 19.53 19.53 0 0 1 2.74-10.3 19 19 0 0 1 7.6-7.09 24.78 24.78 0 0 1 21.92 0 19.08 19.08 0 0 1 7.56 7.09 20.75 20.75 0 0 1 0 20.59 19.07 19.07 0 0 1-7.56 7.09 24.78 24.78 0 0 1-21.92 0zm18.07-9.58a10.87 10.87 0 0 0 2.78-7.81 10.88 10.88 0 0 0-2.77-7.84 9.36 9.36 0 0 0-7.09-2.92A9.47 9.47 0 0 0 355 56a10.79 10.79 0 0 0-2.81 7.81 10.79 10.79 0 0 0 2.81 7.84 9.47 9.47 0 0 0 7.13 2.92 9.35 9.35 0 0 0 7.1-2.92zm21.64-41.85h11.23v53.4h-11.23zm22.24 7.47a6.1 6.1 0 0 1 0-8.93 7.12 7.12 0 0 1 5-1.8 7.3 7.3 0 0 1 5 1.73 5.54 5.54 0 0 1 1.94 4.32 6.11 6.11 0 0 1-1.94 4.64 7 7 0 0 1-5 1.84 7.12 7.12 0 0 1-5-1.8zm-.58 7.2h11.23V83.2h-11.23zm46.67 36.87a11.52 11.52 0 0 1-4.07 1.84 20.62 20.62 0 0 1-5.08.61q-6.9 0-10.7-3.53-3.78-3.53-3.78-10.37V54h-6v-8.66h6V35.9h11.23v9.43h9.65V54h-9.65v15.75a5.29 5.29 0 0 0 1.26 3.78 4.67 4.67 0 0 0 3.56 1.33 7.21 7.21 0 0 0 4.54-1.44zm6.9-44.07a6.1 6.1 0 0 1 0-8.93 7.13 7.13 0 0 1 5-1.8 7.3 7.3 0 0 1 5 1.73 5.54 5.54 0 0 1 1.95 4.32 6.11 6.11 0 0 1-1.95 4.64 7 7 0 0 1-5 1.84 7.13 7.13 0 0 1-5-1.8zm-.58 7.2h11.23V83.2h-11.23zm29.28 36.76a19.12 19.12 0 0 1-7.7-7.09 20.5 20.5 0 0 1 0-20.59 19.13 19.13 0 0 1 7.7-7.09 23.82 23.82 0 0 1 11.12-2.56 21.56 21.56 0 0 1 10.69 2.56 15.16 15.16 0 0 1 6.66 7.31l-8.7 4.68q-3-5.33-8.7-5.33A9.86 9.86 0 0 0 498.6 56a10.6 10.6 0 0 0-2.88 7.85 10.6 10.6 0 0 0 2.88 7.85 9.86 9.86 0 0 0 7.27 2.88 9.42 9.42 0 0 0 8.71-5.33L523.3 74a15.47 15.47 0 0 1-6.66 7.2 21.32 21.32 0 0 1-10.69 2.59 23.8 23.8 0 0 1-11.13-2.56zm38.55 1.37a24.61 24.61 0 0 1-7.34-3l3.74-8.06a23.52 23.52 0 0 0 6.26 2.7 26.24 26.24 0 0 0 7.2 1q7.13 0 7.13-3.53a2.5 2.5 0 0 0-1.94-2.38 28.89 28.89 0 0 0-6-1.22 57.49 57.49 0 0 1-7.85-1.66 12.17 12.17 0 0 1-5.36-3.31q-2.27-2.38-2.27-6.77a10.6 10.6 0 0 1 2.12-6.52 13.67 13.67 0 0 1 6.19-4.43 26.45 26.45 0 0 1 9.61-1.58 37.74 37.74 0 0 1 8.17.9 22.9 22.9 0 0 1 6.73 2.48l-3.74 8a22.36 22.36 0 0 0-11.16-2.88 11.36 11.36 0 0 0-5.4 1 3 3 0 0 0-1.8 2.59 2.57 2.57 0 0 0 1.94 2.52 34.37 34.37 0 0 0 6.19 1.37 66.5 66.5 0 0 1 7.78 1.69 11.7 11.7 0 0 1 5.26 3.28 9.3 9.3 0 0 1 2.23 6.62 10.23 10.23 0 0 1-2.16 6.41 13.78 13.78 0 0 1-6.3 4.36 28.08 28.08 0 0 1-9.83 1.55 37.62 37.62 0 0 1-9.4-1.13z" fill="#111"/></svg>