<svg width="512" height="512" viewBox="0 0 512 512" fill="none" xmlns="http://www.w3.org/2000/svg">
<path d="M429.55 119.49C427.79 116.688 425.204 114.5 422.149 113.228C419.093 111.957 415.719 111.664 412.49 112.39C393.85 116.58 375.43 121.39 357.76 126.61C322.7 137 288.43 150.53 249.91 169.2C231.29 178.25 223.91 182.55 201.91 195.33L197.41 198C164.46 217 140.32 238 123.62 262.29C105.29 288.89 96 320 96 354.64C96 395.38 111.71 431.74 140.24 457.01C169 482.52 209.06 496 256 496C302.76 496 342.89 481.67 372 454.57C400.35 428.22 416 391.18 416 350.28C416 325.28 409.81 303.28 403.83 282.06C391.24 237.37 380.37 198.77 428.54 137.93C430.593 135.338 431.793 132.173 431.974 128.87C432.155 125.568 431.308 122.291 429.55 119.49V119.49Z" fill="var(--gray-1)"/>
<path d="M218.999 119.55C168.459 92.08 101.459 80.69 98.6291 80.22C94.947 79.616 91.1697 80.3178 87.9503 82.2042C84.731 84.0905 82.2721 87.0426 80.9991 90.55C80.011 93.4328 79.8422 96.5332 80.5113 99.5063C81.1804 102.479 82.6613 105.208 84.7891 107.39C116.629 141.17 117.649 176.18 113.439 212.02C113.329 212.943 113.512 213.877 113.96 214.692C114.408 215.506 115.1 216.159 115.939 216.56C116.774 216.958 117.712 217.085 118.623 216.924C119.534 216.762 120.372 216.32 121.019 215.66C137.409 199.15 157.389 184.14 181.419 170.27L185.899 167.67C207.999 154.8 216.229 150 235.999 140.41L238.689 139.11C239.312 138.811 239.847 138.357 240.242 137.79C240.637 137.223 240.878 136.564 240.943 135.876C241.007 135.188 240.892 134.496 240.61 133.866C240.327 133.235 239.886 132.689 239.329 132.28C232.845 127.586 226.053 123.333 218.999 119.55V119.55Z" fill="var(--gray-1)"/>
<path d="M234.26 91.45C237.7 93.32 241.35 95.45 245.16 97.74C255.726 104.217 265.63 111.717 274.73 120.13C275.294 120.656 275.999 121.007 276.758 121.142C277.517 121.277 278.299 121.189 279.01 120.89C301.75 111.284 325.002 102.938 348.66 95.89C353.327 94.51 358.02 93.1767 362.74 91.89C363.308 91.7339 363.834 91.4545 364.281 91.0716C364.728 90.6888 365.086 90.2119 365.327 89.6751C365.569 89.1383 365.689 88.5548 365.679 87.9662C365.669 87.3776 365.53 86.7984 365.27 86.27C357 69.44 350.6 57.37 350.12 56.48C348.757 53.9192 346.722 51.7773 344.235 50.2835C341.748 48.7898 338.901 48.0005 336 48C334.09 48 302.72 48.36 259.13 69.3C250.079 73.658 241.269 78.5017 232.74 83.81C232.14 84.1792 231.648 84.7005 231.314 85.3211C230.98 85.9416 230.816 86.6394 230.838 87.3438C230.86 88.0482 231.068 88.7342 231.441 89.3323C231.814 89.9305 232.338 90.4195 232.96 90.75L234.26 91.45Z" fill="var(--gray-1)"/>
<path d="M209.331 60.79C216.631 56.02 224.071 51.57 231.581 47.48C231.875 47.3197 232.125 47.0878 232.307 46.8057C232.488 46.5236 232.596 46.2003 232.62 45.8656C232.644 45.531 232.583 45.1957 232.444 44.8907C232.304 44.5856 232.09 44.3206 231.821 44.12C205.821 24.55 182.091 17.12 180.671 16.7C177.501 15.7322 174.11 15.7724 170.964 16.8149C167.819 17.8574 165.075 19.8509 163.111 22.52C155.76 32.7355 149.309 43.5695 143.831 54.9C143.701 55.1659 143.632 55.4571 143.629 55.7528C143.626 56.0485 143.688 56.3413 143.811 56.61C143.935 56.8788 144.116 57.1168 144.343 57.307C144.569 57.4972 144.835 57.6349 145.121 57.71C158.731 61.28 174.521 66 190.731 72C191.024 72.109 191.339 72.1476 191.65 72.1129C191.96 72.0782 192.259 71.971 192.521 71.8L209.331 60.79Z" fill="var(--gray-1)"/>
</svg>
