<?xml version="1.0" encoding="utf-8"?>
<!-- Generator: Adobe Illustrator 21.1.0, SVG Export Plug-In . SVG Version: 6.00 Build 0)  -->
<svg version="1.1" id="Warstwa_1" xmlns="http://www.w3.org/2000/svg" xmlns:xlink="http://www.w3.org/1999/xlink" x="0px" y="0px"
	 viewBox="0 0 80 69" style="enable-background:new 0 0 80 69;" xml:space="preserve">
<style type="text/css">
	.st0{display:none;fill:#F9F9F9;}
	.st1{fill:#006443;}
	.st2{fill:#35495E;}
	.st3{fill:#945BA4;}
	.st4{fill:#E54C3C;}
	.st5{fill:#4E8EAC;}
	.st6{fill:#4EB96F;}
	.st7{fill:#3B96D2;}
	.st8{fill:#F9A433;}
	.st9{fill:#27B899;}
	.st10{fill:#F89D37;}
	.st11{fill:#121212;}

	@media (prefers-color-scheme: dark) {
		.st2 {
			fill: #777 !important;
		}
    }
</style>
<rect x="-268" y="-123" class="st0" width="851" height="315"/>
<g>
	<path class="st1" d="M50.3,39.6H2.9c-1.6,0-2.8-1.3-2.8-2.8v-4.5c0-1.6,1.3-2.8,2.8-2.8h47.5L50.3,39.6z"/>
	<path class="st2" d="M60.1,24.6H2.8c-1.6,0-2.8-1.3-2.8-2.8v-4.4c0-1.6,1.3-2.8,2.8-2.8h57.3V24.6z"/>
	<path class="st3" d="M40.3,54.4H2.9c-1.6,0-2.8-1.3-2.8-2.8v-4.4c0-1.6,1.3-2.8,2.8-2.8h37.4V54.4z"/>
	<path class="st4" d="M19.7,9.8H2.8C1.3,9.8,0,8.5,0,6.9V2.5c0-1.6,1.3-2.8,2.8-2.8h16.8V9.8z"/>
	<path class="st5" d="M70.5,69.3H2.9c-1.6,0-2.8-1.3-2.8-2.8v-4.4c0-1.6,1.3-2.8,2.8-2.8h67.6V69.3z"/>
	<path class="st6" d="M77.1,9.8H19.6V-0.3h57.6c1.6,0,2.8,1.3,2.8,2.8v4.4C79.9,8.5,78.7,9.8,77.1,9.8z"/>
	<path class="st7" d="M77.1,24.6H59.8V14.6h17.3c1.6,0,2.8,1.3,2.8,2.8v4.4C79.9,23.4,78.7,24.6,77.1,24.6z"/>
	<path class="st8" d="M77.1,39.6H50.3V29.4h26.8c1.6,0,2.8,1.3,2.8,2.8v4.5C79.9,38.3,78.7,39.6,77.1,39.6z"/>
	<path class="st9" d="M77.1,54.4H40.3V44.4h36.8c1.6,0,2.8,1.3,2.8,2.8v4.4C79.9,53.2,78.7,54.4,77.1,54.4L77.1,54.4z"/>
	<path class="st10" d="M77.2,69.3h-6.6V59.2h6.6c1.6,0,2.8,1.3,2.8,2.8v4.4C80,68.1,78.7,69.3,77.2,69.3z"/>
</g>
</svg>
