<svg xmlns="http://www.w3.org/2000/svg" width="508" height="63" fill="none" xmlns:v="https://vecta.io/nano"><path d="M14.8.38v12.236L6.805.38H.795V22h6.01V9.917L14.8 22h6.01V.38H14.8zM39.087 22h6.348L37.584.38h-6.93L22.772 22h6.317l1.165-3.527h7.667L39.087 22zm-2.668-8.127h-4.63l2.3-6.992 2.33 6.992zm19.286.828c0 1.503-.644 2.085-1.656 2.085-1.104 0-1.84-.675-1.87-2.545h-5.95c0 5.275 3.312 7.973 8.065 7.973 4.54 0 7.42-2.545 7.42-7.513V.38h-6.01V14.7zm21.374.552c0 1.288-.767 1.9-2.27 1.9h-3.496V13.23h3.465c1.472 0 2.3.705 2.3 2.024zm-.46-8.157c0 1.257-.797 1.87-2.27 1.87h-3.036V5.164h3.036c1.472 0 2.27.644 2.27 1.932zm6.624 9.016c0-2.453-1.564-4.63-4.14-5.213 2.116-.583 3.65-2.3 3.65-4.907 0-3.588-2.7-5.612-7.084-5.612H65.303V22h10.703c4.63 0 7.237-2.24 7.237-5.888zM100.72 22h6.348L99.217.38h-6.93L84.405 22h6.317l1.165-3.527h7.667L100.72 22zm-2.668-8.127h-4.63l2.3-6.992 2.33 6.992zm22.414-6.225c0 1.472-.828 2.27-2.453 2.27h-2.975V5.41h2.975c1.625 0 2.453.89 2.453 2.24zM109.027.38V22h6v-7.973h.644L119.975 22h6.716l-4.876-8.433c3.22-.98 4.753-3.435 4.753-6.256 0-3.864-2.7-6.93-8.065-6.93h-9.476zm28.83 0H129.3V22h8.556c6.9 0 11.286-4.57 11.286-10.825 0-6.348-4.386-10.795-11.286-10.795zm-2.545 16.315v-11.1h2.085c3.466 0 5.643 1.993 5.643 5.58 0 3.557-2.177 5.52-5.643 5.52h-2.085zM167.4.38h-15.732v4.845h8.893l-8.893 12.205V22H167.4v-4.876h-8.985L167.4 4.95V.38zM170.66 22h6.01V.38h-6.01V22zM193.924.38h-13.83V22h13.83v-4.815h-7.82V13.29h6.9V8.72h-6.9V5.195h7.82V.38zm11.28 14.32c0 1.503-.644 2.085-1.656 2.085-1.104 0-1.84-.675-1.87-2.545h-5.95c0 5.275 3.312 7.973 8.066 7.973 4.538 0 7.42-2.545 7.42-7.513V.38h-6.01V14.7zM9.8 46.24v-6.12h3.12c2.36 0 3.32 1.2 3.32 3.08 0 1.84-.96 3.04-3.32 3.04H9.8zm14.44-3.04c0-5.44-3.56-9.4-10.56-9.4H1.97V62H9.8v-9.52h3.88c7.16 0 10.56-4.36 10.56-9.28zm31.1 4.6c0-8.48-6.4-14.44-14.44-14.44-8 0-14.48 5.96-14.48 14.44s6.48 14.48 14.48 14.48 14.44-6 14.44-14.48zm-20.92 0c0-4.44 2.4-7.24 6.48-7.24 4.04 0 6.48 2.8 6.48 7.24 0 4.36-2.44 7.2-6.48 7.2-4.08 0-6.48-2.84-6.48-7.2zm24.444-14V62h16.6v-6h-8.76V33.8h-7.84zm40.808 19.64c0-9.04-13.56-7.68-13.56-11.88 0-1.36.92-2.04 2.08-2 1.44 0 2.52.8 2.6 2.56h8.52c-.28-5.6-4.52-8.76-11-8.76-5.96 0-10.56 2.96-10.56 8.48-.12 9.8 13.56 7.68 13.6 12.2 0 1.32-1.08 2.04-2.48 2.04-1.44 0-2.68-.72-2.84-2.84h-8.36c.32 6.04 5.2 9.04 11.48 9.04 6.68 0 10.52-3.88 10.52-8.84zM120.018 62h9.48l-10.88-14.52 10.36-13.68h-9.04l-8.76 12.16V33.8h-7.84V62h7.84V49.64l8.84 12.36zm12.343 0h7.84V33.8h-7.84V62z" fill="#f2f2f2"/><path d="M236.22.38h-15.732v4.845h8.894l-8.894 12.205V22h15.732v-4.876h-8.985L236.22 4.95V.38zM254.322 22h6.348L252.82.38h-6.93L238.008 22h6.317l1.165-3.527h7.667L254.322 22zm-2.668-8.127h-4.63l2.3-6.992 2.33 6.992zM277.472 22h6.348L275.97.38h-6.93L261.157 22h6.318l1.165-3.527h7.667L277.472 22zm-2.668-8.127h-4.63l2.3-6.992 2.33 6.992zM290.134 22h7.39l3.036-13.248L303.535 22h7.39L316.23.38h-6.5l-2.515 14.66L303.903.38H297.3l-3.404 14.78L291.39.38h-6.5L290.134 22zm43.5 0h6.348L332.122.38h-6.93L317.3 22h6.317l1.165-3.527h7.667L333.624 22zm-2.668-8.127h-4.63l2.3-6.992 2.33 6.992zm25-13.493v12.236L347.942.38h-6V22h6V9.917L355.946 22h6.01V.38h-6.01zm25.657 15.057c0-6.93-10.396-5.888-10.396-9.108 0-1.043.706-1.564 1.595-1.533 1.104 0 1.932.613 1.993 1.963h6.532c-.214-4.293-3.465-6.716-8.433-6.716-4.57 0-8.096 2.27-8.096 6.5-.092 7.513 10.396 5.888 10.427 9.353 0 1.012-.828 1.564-1.902 1.564-1.104 0-2.054-.552-2.177-2.177h-6.41c.245 4.63 3.986 6.93 8.8 6.93 5.12 0 8.065-2.975 8.065-6.777zm24.23-4.324c0-6.5-4.907-11.07-11.07-11.07-6.133 0-11.1 4.57-11.1 11.07s4.968 11.1 11.1 11.1 11.07-4.6 11.07-11.1zm-16.04 0c0-3.404 1.84-5.55 4.968-5.55 3.097 0 4.968 2.147 4.968 5.55 0 3.343-1.87 5.52-4.968 5.52-3.128 0-4.968-2.177-4.968-5.52zM412.9 22h7.39l3.036-13.248L426.292 22h7.4L438.988.38h-6.502l-2.514 14.66L426.66.38h-6.594l-3.404 14.78L414.148.38h-6.502L412.9 22zm43.49 0h6.348L454.878.38h-6.93L440.066 22h6.318l1.165-3.527h7.667L456.38 22zm-2.668-8.127h-4.63l2.3-6.992 2.33 6.992zm25-13.493v12.236L470.7.38h-6.01V22h6.01V9.917L478.703 22h6V.38h-6zm15.445 14.75V22h6.04v-6.87L507.795.38h-6.778l-3.802 8.34-3.803-8.34h-6.87l7.605 14.75zM150.762 40.04h7.44V62h7.84V40.04h7.52V33.8h-22.8v6.24zm43.74-6.24h-18.04V62h18.04v-6.28h-10.2v-5.08h9v-5.96h-9v-4.6h10.2V33.8zm25.034 19.64c0-9.04-13.56-7.68-13.56-11.88 0-1.36.92-2.04 2.08-2 1.44 0 2.52.8 2.6 2.56h8.52c-.28-5.6-4.52-8.76-11-8.76-5.96 0-10.56 2.96-10.56 8.48-.12 9.8 13.56 7.68 13.6 12.2 0 1.32-1.08 2.04-2.48 2.04-1.44 0-2.68-.72-2.84-2.84h-8.36c.32 6.04 5.2 9.04 11.48 9.04 6.68 0 10.52-3.88 10.52-8.84zm2.084-13.4h7.44V62h7.84V40.04h7.52V33.8h-22.8v6.24zm41.197 6.2v-6.12h3.12c2.36 0 3.32 1.2 3.32 3.08 0 1.84-.96 3.04-3.32 3.04h-3.12zm14.44-3.04c0-5.44-3.56-9.4-10.56-9.4h-11.72V62h7.84v-9.52h3.88c7.16 0 10.56-4.36 10.56-9.28zm31.1 4.6c0-8.48-6.4-14.44-14.44-14.44-8 0-14.48 5.96-14.48 14.44s6.48 14.48 14.48 14.48 14.44-6 14.44-14.48zm-20.92 0c0-4.44 2.4-7.24 6.48-7.24 4.04 0 6.48 2.8 6.48 7.24 0 4.36-2.44 7.2-6.48 7.2-4.08 0-6.48-2.84-6.48-7.2zm24.444-14V62h16.6v-6h-8.76V33.8h-7.84zM331.54 62h7.84V33.8h-7.84V62zm10.744-21.96h7.44V62h7.84V40.04h7.52V33.8h-22.8v6.24zm33.54 13V62h7.88v-8.96l9.92-19.24h-8.84l-4.96 10.88-4.96-10.88h-8.96l9.92 19.24zm19.247-5.2c0 8.44 5.56 14.36 14.04 14.36 7.08 0 12.12-4.08 13.52-10.48h-8.44c-1 2.12-2.88 3.28-5.2 3.28-3.6 0-5.96-2.8-5.96-7.16 0-4.32 2.36-7.12 5.96-7.12 2.32 0 4.2 1.16 5.2 3.28h8.44c-1.4-6.4-6.44-10.48-13.52-10.48-8.48 0-14.04 5.92-14.04 14.32zm51.552-14.04h-20.52v6.32h11.6l-11.6 15.92V62h20.52v-6.36h-11.72l11.72-15.88V33.8zm22.532 0v15.96l-10.44-15.96h-7.84V62h7.84V46.24L469.157 62h7.84V33.8h-7.84zm20.146 19.24V62h7.88v-8.96l9.92-19.24h-8.84l-4.96 10.88-4.96-10.88h-8.96l9.92 19.24z" fill="#f2c94c"/></svg>